<svg id="Calque_1" data-name="Calque 1" xmlns="http://www.w3.org/2000/svg" viewBox="0 0 727.43 234.03"><defs><style>.cls-1{fill:#fff;}</style></defs><path class="cls-1" d="M166.86,94.79a18.17,18.17,0,0,1-9.75,2.74,19.11,19.11,0,0,1-4-.47l15.81,70.52a16.5,16.5,0,0,1-12.49,19.71L78,204.24a16.48,16.48,0,0,1-19.7-12.49l-21-93.62A16.53,16.53,0,0,1,49.83,78.42l60.6-13a18.11,18.11,0,0,1-.6-2.52A19.27,19.27,0,0,1,112,50.83l-65.24,14a30.46,30.46,0,0,0-23,36.35l21,93.62a30.45,30.45,0,0,0,29.71,23.77,31,31,0,0,0,6.65-.73l78.39-17a30.44,30.44,0,0,0,23-36.36Z"/><path class="cls-1" d="M172.88,22.78c-7.5-4.83-15.41-7.31-21.82-7.31-5.24,0-9.47,1.65-11.65,5-2.7,4.2-1.69,10.17,2.11,16.15l-16.74,20a5.32,5.32,0,0,0,1.2,7.89l6.53,4.21-10.14,22.7a5.32,5.32,0,0,0,8.85,5.7L147.7,78.53l6.53,4.22a5.28,5.28,0,0,0,2.88.84,5.06,5.06,0,0,0,1.44-.2,5.35,5.35,0,0,0,3.36-2.81L173.2,57.07a28.56,28.56,0,0,0,4,.28c5.23,0,9.46-1.65,11.64-5C193.63,44.79,186.51,31.57,172.88,22.78Z"/><path class="cls-1" d="M285.21,75.32V90.4h-37.3v27.13h31.24v15.08H247.91v38.53h-19V75.32Z"/><path class="cls-1" d="M296.76,171.14V99.49h10.75c1.88,0,3.19.34,3.93,1a5.73,5.73,0,0,1,1.48,3.54l.94,7.28a31,31,0,0,1,7.58-9.67,15.4,15.4,0,0,1,10-3.53,12.68,12.68,0,0,1,7.72,2.24l-1.38,13.71a2.49,2.49,0,0,1-.86,1.83,3.12,3.12,0,0,1-1.95.55,20.68,20.68,0,0,1-3.1-.33,23.35,23.35,0,0,0-3.75-.32,13.13,13.13,0,0,0-4.51.72,10.47,10.47,0,0,0-3.54,2.13,15.66,15.66,0,0,0-2.78,3.42,29.22,29.22,0,0,0-2.23,4.62v44.45Z"/><path class="cls-1" d="M378.58,98.34a34.31,34.31,0,0,1,12.48,2.2,27.6,27.6,0,0,1,9.82,6.35,28.87,28.87,0,0,1,6.42,10.21A38.67,38.67,0,0,1,409.61,131a22.7,22.7,0,0,1-.22,3.43,5.8,5.8,0,0,1-.69,2.12,2.51,2.51,0,0,1-1.29,1.12,5.63,5.63,0,0,1-2.06.33H362.49a33.27,33.27,0,0,0,1.88,9,17.83,17.83,0,0,0,3.82,6.27,14.9,14.9,0,0,0,5.63,3.65,20.89,20.89,0,0,0,7.21,1.19,22.07,22.07,0,0,0,6.89-1,38.56,38.56,0,0,0,5.13-2.1c1.46-.74,2.78-1.44,3.93-2.09a6.85,6.85,0,0,1,3.39-1,4,4,0,0,1,3.32,1.66l5.27,6.78a28.76,28.76,0,0,1-6.57,5.73,35.66,35.66,0,0,1-7.47,3.61,42.28,42.28,0,0,1-7.82,1.91,52.54,52.54,0,0,1-7.65.58,38.62,38.62,0,0,1-13.86-2.45,30.84,30.84,0,0,1-11.18-7.33,34.16,34.16,0,0,1-7.47-12.05,47,47,0,0,1-2.7-16.63A39.34,39.34,0,0,1,346.62,120a33.23,33.23,0,0,1,6.82-11.26,32.28,32.28,0,0,1,10.78-7.61A35,35,0,0,1,378.58,98.34Zm.36,13.06q-7,0-11,4.07T362.85,127h30.31a21,21,0,0,0-.83-5.92,14.15,14.15,0,0,0-2.6-5,12.51,12.51,0,0,0-4.44-3.43A14.77,14.77,0,0,0,378.94,111.4Z"/><path class="cls-1" d="M453,98.34a34.31,34.31,0,0,1,12.48,2.2,27.6,27.6,0,0,1,9.82,6.35,28.87,28.87,0,0,1,6.42,10.21A38.67,38.67,0,0,1,484,131a22.7,22.7,0,0,1-.22,3.43,5.8,5.8,0,0,1-.69,2.12,2.51,2.51,0,0,1-1.29,1.12,5.63,5.63,0,0,1-2.06.33H436.88a33.27,33.27,0,0,0,1.88,9,17.83,17.83,0,0,0,3.82,6.27,14.9,14.9,0,0,0,5.63,3.65,20.89,20.89,0,0,0,7.21,1.19,22.07,22.07,0,0,0,6.89-1,38.56,38.56,0,0,0,5.13-2.1c1.46-.74,2.78-1.44,3.93-2.09a6.85,6.85,0,0,1,3.39-1,4,4,0,0,1,3.32,1.66l5.27,6.78a28.76,28.76,0,0,1-6.57,5.73,35.66,35.66,0,0,1-7.47,3.61,42.19,42.19,0,0,1-7.83,1.91,52.3,52.3,0,0,1-7.64.58A38.62,38.62,0,0,1,440,169.77a30.84,30.84,0,0,1-11.18-7.33,34.16,34.16,0,0,1-7.47-12.05,47,47,0,0,1-2.7-16.63A39.34,39.34,0,0,1,421,120a33.23,33.23,0,0,1,6.82-11.26,32.28,32.28,0,0,1,10.78-7.61A35,35,0,0,1,453,98.34Zm.36,13.06q-7,0-11,4.07T437.24,127h30.31a21,21,0,0,0-.83-5.92,14.15,14.15,0,0,0-2.6-5,12.51,12.51,0,0,0-4.44-3.43A14.77,14.77,0,0,0,453.33,111.4Z"/><path class="cls-1" d="M573.47,171.14H563.29a4.22,4.22,0,0,1-2.78-.87,6,6,0,0,1-1.62-2.16l-8.08-22.8H511.7l-8,22.73a4.68,4.68,0,0,1-1.62,2.16,4.43,4.43,0,0,1-2.85.94H489.05l35.57-94.81H538ZM515,135.93h32.47L534.07,97.76c-.48-1.16-1-2.5-1.44-4s-.94-3.2-1.37-5c-.48,1.83-1,3.51-1.45,5.05s-.93,2.89-1.37,4Z"/><path class="cls-1" d="M633.64,171.14a3.82,3.82,0,0,1-2.23-.61,2.6,2.6,0,0,1-1-2l-1.3-8.44a38,38,0,0,1-10.18,8.73,25.78,25.78,0,0,1-13.2,3.32,24.64,24.64,0,0,1-10.86-2.35,22.81,22.81,0,0,1-8.33-6.89,33,33,0,0,1-5.34-11.29,58.26,58.26,0,0,1-1.88-15.55,49.71,49.71,0,0,1,2.06-14.54,34.84,34.84,0,0,1,6-11.65,28.18,28.18,0,0,1,9.49-7.72,27.73,27.73,0,0,1,12.66-2.81,25.86,25.86,0,0,1,11,2.12,25.06,25.06,0,0,1,8.08,6.1v-39h12.7v102.6ZM609.83,162a19.28,19.28,0,0,0,10.43-2.78,31.85,31.85,0,0,0,8.26-7.76V117.31a19.78,19.78,0,0,0-7.36-6.38,20.64,20.64,0,0,0-8.8-1.84q-9.6,0-14.79,7t-5.2,20a50.67,50.67,0,0,0,1.19,11.76,23.16,23.16,0,0,0,3.43,8,13.69,13.69,0,0,0,5.48,4.62A17.68,17.68,0,0,0,609.83,162Z"/><path class="cls-1" d="M700.6,112.26a2.79,2.79,0,0,1-2.6,1.59,4.53,4.53,0,0,1-2.34-.79c-.84-.53-1.85-1.1-3-1.7a30,30,0,0,0-4.19-1.7,18.71,18.71,0,0,0-5.73-.79,15.25,15.25,0,0,0-5.05.79,11.89,11.89,0,0,0-3.83,2.17,9.55,9.55,0,0,0-2.45,3.21,9.1,9.1,0,0,0-.87,3.93,7,7,0,0,0,1.45,4.55,12.45,12.45,0,0,0,3.82,3.1,34.71,34.71,0,0,0,5.45,2.35l6.24,2.12a61.74,61.74,0,0,1,6.24,2.53,23.32,23.32,0,0,1,5.45,3.53,16,16,0,0,1,3.82,5.09,16.62,16.62,0,0,1,1.44,7.25,24.13,24.13,0,0,1-1.66,9.06,20,20,0,0,1-4.86,7.18,23,23,0,0,1-7.94,4.76,31.57,31.57,0,0,1-10.86,1.73,32.9,32.9,0,0,1-12.74-2.38,30.85,30.85,0,0,1-9.7-6.21l3-4.76a4.42,4.42,0,0,1,1.37-1.44,3.67,3.67,0,0,1,2-.51,4.35,4.35,0,0,1,2.6,1c.86.65,1.91,1.37,3.14,2.16a22.58,22.58,0,0,0,4.43,2.17,18.67,18.67,0,0,0,6.5,1,15.71,15.71,0,0,0,5.73-.94,11.58,11.58,0,0,0,4-2.49,10,10,0,0,0,2.38-3.64,12.25,12.25,0,0,0,.79-4.4,7.61,7.61,0,0,0-1.48-4.8,12.67,12.67,0,0,0-3.86-3.25,31.33,31.33,0,0,0-5.45-2.34q-3.06-1-6.27-2.13c-2.14-.74-4.24-1.59-6.28-2.53a20.33,20.33,0,0,1-5.45-3.6,17,17,0,0,1-3.86-5.38,18.27,18.27,0,0,1-1.48-7.72,19.72,19.72,0,0,1,1.59-7.83,19.18,19.18,0,0,1,4.62-6.53,22.39,22.39,0,0,1,7.5-4.47,29.27,29.27,0,0,1,10.25-1.66,31.48,31.48,0,0,1,11.9,2.16,26.06,26.06,0,0,1,9.09,6.07Z"/></svg>